Coordinates
version=1
nRows=23
nColumns=38
inDegrees=no

Units are S.I. units (second, meters, Newtons, ...)
If the header above contains a line with 'inDegrees', this indicates whether rotational values are in degrees (yes) or radians (no).

endheader
time	pelvis_tilt	pelvis_list	pelvis_rotation	pelvis_tx	pelvis_ty	pelvis_tz	hip_flexion_r	hip_adduction_r	hip_rotation_r	knee_angle_r	ankle_angle_r	subtalar_angle_r	mtp_angle_r	hip_flexion_l	hip_adduction_l	hip_rotation_l	knee_angle_l	ankle_angle_l	subtalar_angle_l	mtp_angle_l	lumbar_extension	lumbar_bending	lumbar_rotation	arm_flex_r	arm_add_r	arm_rot_r	elbow_flex_r	pro_sup_r	wrist_flex_r	wrist_dev_r	arm_flex_l	arm_add_l	arm_rot_l	elbow_flex_l	pro_sup_l	wrist_flex_l	wrist_dev_l
0	-3.10498	1.23814	-1.60849	0.656732	-0.479377	1.0472	-0.2182	-0.151618	-0.333665	0.462699	-0.13804	0	0	-0.40206	-0.0196706	-0.347817	0.1286	-0.365444	0	0	-0.337098	-0.0848215	-0.0647317	-0.018715	-0.331912	0.643386	0.561256	0.999496	0	0	-0.0551839	-0.322361	0.407032	0.55063	1.5708	0	0
0.01	-3.10648	1.2417	-1.60794	0.65669	-0.479246	1.04727	-0.214396	-0.151025	-0.332379	0.461747	-0.138455	0	0	-0.398613	-0.019582	-0.34693	0.127598	-0.36612	0	0	-0.331588	-0.0796579	-0.0662681	-0.0191132	-0.333963	0.646773	0.560778	0.998796	0	0	-0.0508109	-0.3112	0.405841	0.526862	1.5708	0	0
0.02	-3.10721	1.23511	-1.60758	0.656736	-0.479671	1.04738	-0.22136	-0.15156	-0.33625	0.461771	-0.138305	0	0	-0.406053	-0.0195719	-0.348297	0.126593	-0.366562	0	0	-0.34422	-0.0856553	-0.0660117	-0.0169806	-0.331799	0.650329	0.56209	0.994119	0	0	-0.0559287	-0.325258	0.419128	0.552111	1.5708	0	0
0.03	-3.10798	1.23552	-1.60749	0.656725	-0.479726	1.0474	-0.220883	-0.151576	-0.336898	0.461293	-0.138726	0	0	-0.405862	-0.019652	-0.348805	0.126319	-0.366899	0	0	-0.344173	-0.0861635	-0.0661006	-0.0174398	-0.331664	0.654044	0.562138	0.99252	0	0	-0.0565563	-0.324626	0.420898	0.5496	1.5708	0	0
0.04	-3.1084	1.23611	-1.60762	0.656721	-0.479771	1.04742	-0.220337	-0.15168	-0.337313	0.460625	-0.139167	0	0	-0.405546	-0.0196373	-0.349216	0.125861	-0.36727	0	0	-0.34392	-0.0865869	-0.0666146	-0.0178841	-0.331404	0.657523	0.562137	0.990822	0	0	-0.0573641	-0.323771	0.421687	0.546784	1.5708	0	0
0.05	-3.10849	1.23701	-1.60797	0.65669	-0.479821	1.04741	-0.219677	-0.15184	-0.337445	0.459529	-0.139683	0	0	-0.404585	-0.019414	-0.349853	0.125463	-0.367647	0	0	-0.343277	-0.0867609	-0.067648	-0.0183057	-0.331172	0.660815	0.562211	0.988951	0	0	-0.0582645	-0.322566	0.421766	0.543327	1.5708	0	0
0.06	-3.10934	1.23814	-1.60794	0.656658	-0.479883	1.04737	-0.218728	-0.151841	-0.337431	0.458217	-0.140204	0	0	-0.403448	-0.0193364	-0.350802	0.12511	-0.368022	0	0	-0.342419	-0.0866601	-0.0686724	-0.0185682	-0.330993	0.664043	0.562317	0.986912	0	0	-0.0592889	-0.321195	0.421414	0.539824	1.5708	0	0
0.07	-3.11039	1.23975	-1.60771	0.656639	-0.479923	1.04734	-0.217036	-0.151698	-0.337472	0.457654	-0.140702	0	0	-0.40202	-0.0193356	-0.351583	0.124439	-0.368505	0	0	-0.341061	-0.0863157	-0.0698842	-0.0188965	-0.330773	0.667214	0.562388	0.984817	0	0	-0.0603742	-0.319456	0.420175	0.535811	1.5708	0	0
0.08	-3.11198	1.24227	-1.60679	0.65656	-0.479921	1.04729	-0.214317	-0.151268	-0.337298	0.457497	-0.141308	0	0	-0.399768	-0.0194574	-0.351886	0.123484	-0.369097	0	0	-0.338311	-0.0853405	-0.0706496	-0.0199276	-0.330838	0.670109	0.562505	0.982757	0	0	-0.0606542	-0.316056	0.417271	0.528902	1.5708	0	0
0.09	-3.11287	1.24794	-1.60651	0.656388	-0.479827	1.04739	-0.208638	-0.150747	-0.335818	0.455873	-0.142336	0	0	-0.394083	-0.0190517	-0.350646	0.122171	-0.370154	0	0	-0.330369	-0.0790333	-0.0732528	-0.0210794	-0.333397	0.673322	0.563035	0.980543	0	0	-0.0553662	-0.302491	0.413179	0.500952	1.5708	0	0
0.1	-3.1129	1.24149	-1.60648	0.656312	-0.480438	1.04758	-0.215726	-0.151559	-0.339807	0.455235	-0.142966	0	0	-0.401818	-0.0183144	-0.350307	0.119382	-0.371632	0	0	-0.345033	-0.0846541	-0.0746117	-0.0181432	-0.331144	0.675406	0.565639	0.970358	0	0	-0.0595287	-0.320147	0.435601	0.529988	1.5708	0	0
0.11	-3.11383	1.24252	-1.60623	0.656247	-0.480584	1.0476	-0.214785	-0.151582	-0.340167	0.45459	-0.143468	0	0	-0.401135	-0.0181173	-0.350835	0.118285	-0.372162	0	0	-0.345094	-0.0841189	-0.0757746	-0.0182917	-0.330881	0.67767	0.565987	0.966336	0	0	-0.0592765	-0.319969	0.439948	0.527254	1.5708	0	0
0.12	-3.11465	1.24363	-1.60609	0.656175	-0.480733	1.04762	-0.213859	-0.151592	-0.340534	0.453655	-0.144216	0	0	-0.400518	-0.0178561	-0.351188	0.116884	-0.37315	0	0	-0.345221	-0.0834367	-0.0773391	-0.0178826	-0.331047	0.68193	0.566556	0.958045	0	0	-0.0583711	-0.321084	0.450962	0.524934	1.56426	0	0
0.13	-3.11614	1.24462	-1.60575	0.656162	-0.480879	1.04766	-0.21293	-0.151391	-0.340582	0.452679	-0.144707	0	0	-0.400343	-0.0176318	-0.352105	0.114981	-0.37434	0	0	-0.345855	-0.0825822	-0.0790309	-0.0170058	-0.331375	0.686966	0.567332	0.9494	0	0	-0.05713	-0.322448	0.463966	0.522661	1.54977	0	0
0.14	-3.11772	1.24523	-1.60533	0.656159	-0.481078	1.04773	-0.212336	-0.151149	-0.340747	0.451582	-0.145295	0	0	-0.400778	-0.0172769	-0.352556	0.11247	-0.375642	0	0	-0.347291	-0.0813819	-0.0811323	-0.0153912	-0.331904	0.693268	0.568135	0.940228	0	0	-0.055557	-0.324039	0.478369	0.520465	1.53397	0	0
0.15	-3.11925	1.2459	-1.60488	0.656137	-0.48131	1.0478	-0.211594	-0.150924	-0.340841	0.450541	-0.145885	0	0	-0.401078	-0.0169236	-0.352764	0.109995	-0.376767	0	0	-0.34912	-0.0799937	-0.0837568	-0.0130104	-0.332684	0.700851	0.56911	0.929478	0	0	-0.0538204	-0.326027	0.494203	0.518514	1.51723	0	0
0.16	-3.12062	1.24697	-1.60462	0.656085	-0.481523	1.04786	-0.210419	-0.150805	-0.340904	0.449628	-0.146253	0	0	-0.400764	-0.016584	-0.353162	0.108025	-0.377425	0	0	-0.350748	-0.0783461	-0.0868039	-0.0103298	-0.333594	0.70853	0.570154	0.916204	0	0	-0.0521679	-0.327889	0.510118	0.516272	1.49938	0	0
0.17	-3.12119	1.25724	-1.60554	0.655983	-0.481197	1.04771	-0.199288	-0.150508	-0.337584	0.448858	-0.147876	0	0	-0.390592	-0.0158296	-0.351673	0.106242	-0.37901	0	0	-0.332596	-0.0700744	-0.0862535	-0.0165924	-0.334104	0.700042	0.565652	0.962276	0	0	-0.0497524	-0.292633	0.434659	0.465982	1.5708	0	0
0.18	-3.12211	1.24517	-1.60487	0.655929	-0.482246	1.04813	-0.212676	-0.151253	-0.343018	0.446688	-0.149458	0	0	-0.405056	-0.0148759	-0.351116	0.101364	-0.382295	0	0	-0.365095	-0.0780922	-0.0925399	-0.00632431	-0.329439	0.69782	0.569829	0.963956	0	0	-0.0442087	-0.346034	0.577001	0.530122	1.4378	0	0
0.19	-3.12312	1.24544	-1.60512	0.655867	-0.482519	1.04822	-0.212393	-0.15158	-0.34392	0.445652	-0.15062	0	0	-0.405866	-0.0140539	-0.350567	0.098448	-0.383996	0	0	-0.368767	-0.0768438	-0.0953507	-0.00337681	-0.329548	0.70216	0.57015	0.9623	0	0	-0.0410475	-0.34908	0.595362	0.5301	1.42552	0	0
0.2	-3.12514	1.24551	-1.60468	0.655835	-0.482783	1.04831	-0.212361	-0.151574	-0.344453	0.444404	-0.151688	0	0	-0.407048	-0.013454	-0.350435	0.0953894	-0.385682	0	0	-0.37202	-0.075004	-0.0973435	-0.000857093	-0.330163	0.706392	0.570775	0.96103	0	0	-0.0384445	-0.351226	0.610144	0.529805	1.41639	0	0
0.21	-3.12747	1.24508	-1.60394	0.655803	-0.483065	1.04842	-0.212864	-0.151417	-0.344993	0.443143	-0.152789	0	0	-0.40885	-0.0129596	-0.350531	0.0922925	-0.38739	0	0	-0.375455	-0.0731489	-0.0990487	0.00145261	-0.330713	0.709822	0.571386	0.960399	0	0	-0.0361228	-0.352719	0.621444	0.529557	1.41138	0	0
0.22	-3.12872	1.24464	-1.60382	0.655726	-0.48336	1.04854	-0.213555	-0.151537	-0.345947	0.441816	-0.153668	0	0	-0.410616	-0.0121295	-0.349833	0.089029	-0.389194	0	0	-0.379165	-0.0716668	-0.101106	0.0038681	-0.331125	0.712842	0.572021	0.960674	0	0	-0.0340901	-0.353684	0.628627	0.529694	1.41027	0	0
